<svg id="Layer_1" data-name="Layer 1" xmlns="http://www.w3.org/2000/svg" viewBox="0 0 232.36 350.5"><defs><style>.cls-1{fill:#fff;}.cls-2{fill:none;}.cls-3{fill:#231f20;}</style></defs><path class="cls-1" d="M421.29,491.87Z" transform="translate(-428.22 -302.43)"/><path class="cls-2" d="M419,485.76" transform="translate(-428.22 -302.43)"/><path d="M559.45,472.4a16.33,16.33,0,1,1-2.1-8A16.33,16.33,0,0,1,559.45,472.4Z" transform="translate(-428.22 -302.43)"/><path d="M631.28,320.77q-26.61,63.15-53.19,126.3a43.17,43.17,0,0,0-74.2,43.31q-31.31-.37-62.61-.8a13.2,13.2,0,0,1-11.85-18.68Q466,390.53,502.56,310.17a13.21,13.21,0,0,1,12-7.74h104.5A13.23,13.23,0,0,1,631.28,320.77Z" transform="translate(-428.22 -302.43)"/><path d="M559.45,472.4a16.33,16.33,0,0,1-31.49,6c.94-2.11,1.9-4.23,2.86-6.33a13.21,13.21,0,0,1,12-7.74h14.49A16.37,16.37,0,0,1,559.45,472.4Z" transform="translate(-428.22 -302.43)"/><path d="M659.53,482.72q-34.11,81.06-68.27,162.12a13.21,13.21,0,0,1-12.35,8.09l-109.36-1.41a13.23,13.23,0,0,1-11.87-18.7L515.59,505.6a43.15,43.15,0,0,0,69.95-41.23h61.82A13.22,13.22,0,0,1,659.53,482.72Z" transform="translate(-428.22 -302.43)"/><path class="cls-1" d="M559.45,472.4a16.33,16.33,0,1,1-2.1-8A16.33,16.33,0,0,1,559.45,472.4Z" transform="translate(-428.22 -302.43)"/><path class="cls-3" d="M559.45,472.4a16.33,16.33,0,1,1-2.1-8A16.33,16.33,0,0,1,559.45,472.4Z" transform="translate(-428.22 -302.43)"/></svg>